M48
INCH,TZ
T1C0.0394
T2C0.0402
%
G90
G05
T1
X38000Y-26000
X38000Y-27000
X38000Y-35000
X38000Y-36000
X39000Y-26000
X39000Y-27000
X39000Y-35000
X39000Y-36000
X40000Y-26000
X40000Y-27000
X40000Y-35000
X40000Y-36000
X41000Y-26000
X41000Y-27000
X41000Y-35000
X41000Y-36000
X42000Y-26000
X42000Y-27000
X42000Y-35000
X42000Y-36000
X43000Y-26000
X43000Y-27000
X43000Y-35000
X43000Y-36000
X44000Y-26000
X44000Y-27000
X44000Y-35000
X44000Y-36000
X45000Y-26000
X45000Y-27000
X45000Y-35000
X45000Y-36000
X46000Y-26000
X46000Y-27000
X46000Y-35000
X46000Y-36000
X47000Y-26000
X47000Y-27000
X47000Y-35000
X47000Y-36000
X48000Y-26000
X48000Y-27000
X48000Y-35000
X48000Y-36000
X49000Y-26000
X49000Y-27000
X49000Y-35000
X49000Y-36000
X50000Y-26000
X50000Y-27000
X50000Y-35000
X50000Y-36000
X51000Y-26000
X51000Y-27000
X51000Y-35000
X51000Y-36000
X52000Y-26000
X52000Y-27000
X52000Y-35000
X52000Y-36000
X53000Y-26000
X53000Y-27000
X53000Y-35000
X53000Y-36000
X54000Y-26000
X54000Y-27000
X54000Y-35000
X54000Y-36000
X55000Y-26000
X55000Y-27000
X55000Y-35000
X55000Y-36000
X56000Y-26000
X56000Y-27000
X56000Y-35000
X56000Y-36000
X57000Y-26000
X57000Y-27000
X57000Y-35000
X57000Y-36000
X58000Y-26000
X58000Y-27000
X58000Y-35000
X58000Y-36000
X59000Y-26000
X59000Y-27000
X59000Y-35000
X59000Y-36000
X60000Y-26000
X60000Y-27000
X60000Y-35000
X60000Y-36000
X61000Y-26000
X61000Y-27000
X61000Y-35000
X61000Y-36000
X62000Y-26000
X62000Y-27000
X62000Y-35000
X62000Y-36000
X64000Y-26000
X64000Y-27000
X64000Y-35000
X64000Y-36000
X65000Y-26000
X65000Y-27000
X65000Y-35000
X65000Y-36000
X66000Y-26000
X66000Y-27000
X66000Y-35000
X66000Y-36000
X67000Y-26000
X67000Y-27000
X67000Y-35000
X67000Y-36000
X68000Y-26000
X68000Y-27000
X68000Y-35000
X68000Y-36000
X69000Y-26000
X69000Y-27000
X69000Y-35000
X69000Y-36000
T2
X38000Y-29500
X38000Y-31500
X38500Y-30500
X38500Y-32500
X39000Y-29500
X39000Y-31500
X39500Y-30500
X39500Y-32500
X40000Y-29500
X40000Y-31500
X40500Y-30500
X40500Y-32500
X41000Y-29500
X41000Y-31500
X41500Y-30500
X41500Y-32500
X42000Y-29500
X42000Y-31500
X42500Y-30500
X42500Y-32500
X43000Y-29500
X43000Y-31500
X43500Y-30500
X43500Y-32500
X44000Y-29500
X44000Y-31500
X44500Y-30500
X44500Y-32500
X45000Y-29500
X45000Y-31500
X45500Y-30500
X45500Y-32500
X46000Y-29500
X46000Y-31500
X46500Y-30500
X46500Y-32500
X47000Y-29500
X47000Y-31500
X47500Y-30500
X47500Y-32500
X48000Y-29500
X48000Y-31500
X48500Y-30500
X48500Y-32500
X49000Y-29500
X49000Y-31500
X49500Y-30500
X49500Y-32500
X50000Y-29500
X50000Y-31500
X50500Y-30500
X50500Y-32500
X51000Y-29500
X51000Y-31500
X51500Y-30500
X51500Y-32500
X52000Y-29500
X52000Y-31500
X52500Y-30500
X52500Y-32500
X53000Y-29500
X53000Y-31500
X53500Y-30500
X53500Y-32500
X54000Y-29500
X54000Y-31500
X54500Y-30500
X54500Y-32500
X55000Y-29500
X55000Y-31500
X55500Y-30500
X55500Y-32500
X56000Y-29500
X56000Y-31500
X56500Y-30500
X56500Y-32500
X57000Y-29500
X57000Y-31500
X57500Y-30500
X57500Y-32500
X58000Y-29500
X58000Y-31500
X58500Y-30500
X58500Y-32500
X59000Y-29500
X59000Y-31500
X59500Y-30500
X59500Y-32500
X60000Y-29500
X60000Y-31500
X60500Y-30500
X60500Y-32500
X61000Y-29500
X61000Y-31500
X61500Y-30500
X61500Y-32500
X62000Y-29500
X62000Y-31500
X63500Y-30500
X63500Y-32500
X64000Y-29500
X64000Y-31500
X64500Y-30500
X64500Y-32500
X65000Y-29500
X65000Y-31500
X65500Y-30500
X65500Y-32500
X66000Y-29500
X66000Y-31500
X66500Y-30500
X66500Y-32500
X67000Y-29500
X67000Y-31500
X67500Y-30500
X67500Y-32500
X68000Y-29500
X68000Y-31500
X68500Y-30500
X68500Y-32500
T0
M30
